<?xml version="1.0" encoding="UTF-8"?>
<svg viewBox="0 0 547.8244 374.53711" xmlns="http://www.w3.org/2000/svg">
 <g transform="translate(-16.228 -15.154)">
  <path d="m319.26 389.45c-0.33006-0.12656-1.2797-1.1421-2.1103-2.2567-1.2128-1.6274-1.8275-2.2125-3.1206-2.9705-1.9801-1.1606-2.7931-1.9928-3.3118-3.39-0.58968-1.5883-0.52966-4.533 0.13186-6.4711 0.3667-1.0743 0.44575-1.5817 0.25627-1.6448-0.47899-0.15966-1.2314-1.0865-1.8257-2.249-0.5622-1.0997-0.57955-1.3135-0.7301-9.0018-0.17887-9.133 0.26328-17.728 1.2511-24.319 1.7656-11.78 2.0165-14.006 2.016-17.884-5.5e-4 -4.9041-0.53973-20.292-0.82851-23.645-0.0512-0.59412-0.16616-2.0524-0.25552-3.2407s-0.19994-2.5818-0.24572-3.0968c-0.0871-0.97988-0.51488-6.347-0.71943-9.0257-0.0655-0.85818-0.22269-2.4245-0.34924-3.4807s-0.3999-3.4867-0.60743-5.4011-0.42465-3.8588-0.48252-4.3209-0.2738-2.4605-0.47984-4.4409-0.42299-3.9788-0.48213-4.4409c-0.11482-0.89707-0.60896-5.702-1.296-12.603-0.30104-3.0234-1.291-9.2574-1.9442-12.243-0.84421-3.8581-1.9544-7.6328-2.3866-8.1147-0.0952-0.10622-0.24475 2.8104-0.33221 6.4813-0.33501 14.061-0.94157 32.458-1.526 46.283-0.37998 8.9885-0.50365 30.628-0.19348 33.854 0.15845 1.6485 0.56609 6.5595 0.73661 8.8743 0.0778 1.0562 0.35578 2.9466 0.6177 4.2009l2.1326 10.206c2.63 12.584 2.701 13.768 1.6634 27.722-0.47571 6.3976-0.50893 6.6177-1.0765 7.1302l-0.58559 0.52893 0.60655 0.89382c0.82951 1.2223 0.91422 1.6959 0.78179 4.3699-0.18803 3.797-1.234 5.6044-3.4341 5.9344-1.5909 0.23856-1.8032 0.50108-2.135 2.6402-0.34265 2.2087-0.51508 2.6746-1.1071 2.9915-0.23714 0.12692-1.9798 0.57531-3.8726 0.9964-3.2584 0.72495-3.7603 0.77073-9.4426 0.86108l-6.0012 0.0954-1.0048-0.86394c-1.177-1.012-1.7558-2.6144-1.7558-4.8608 0-1.2645 0.13061-1.64 1.2398-3.5638 2.357-4.0883 4.5175-8.5872 4.268-8.8878-0.12907-0.15553-1.07-0.33369-2.0911-0.39595-3.6697-0.22374-6.3332-1.6522-6.6209-3.551-0.0698-0.4609-0.29744-4.1327-0.50579-8.1595s-0.6987-13.263-1.0897-20.524-0.92794-17.362-1.1932-22.445c-0.54784-10.499-0.64145-11.838-1.9457-27.846-0.52174-6.4033-1.0612-12.291-1.1988-13.083-0.49931-2.8743-3.2575-14.579-4.299-18.244-1.1646-4.0974-3.0128-13.065-5.5414-26.886-0.63807-3.4876-0.61181-3.4244-1.4972-3.599-1.2308-0.24274-2.0443-0.6177-2.1956-1.012-0.15368-0.40048 0.16317-3.3488 0.70404-6.5513 0.18954-1.1222 0.56767-3.4987 0.84032-5.2811s0.54152-3.5256 0.59753-3.8739c0.0679-0.42211-0.0568-0.77676-0.37388-1.0637-0.79031-0.71521-2.5589-3.5527-5.065-8.1261-2.8132-5.1338-2.7703-4.9497-3.5534-15.262-1.2418-16.353-1.7051-21.882-1.9342-23.079-0.45494-2.3768-0.96072-11.303-1.1134-19.651-0.1693-9.2551-0.28386-7.9346 2.0617-23.763 0.26412-1.7824 0.70193-4.753 0.97289-6.6014 1.8568-12.666 2.6189-16.156 4.226-19.35 1.2529-2.4903 2.6962-3.4643 8.1446-5.4968 6.8484-2.5547 18.369-7.374 19.826-8.2938 0.56445-0.35631 1.2993-1.2396 2.0233-2.4322 0.62532-1.03 2.1058-2.9382 3.29-4.2404s2.2904-2.7071 2.4583-3.1218 0.37148-2.2929 0.45242-4.1737l0.14717-3.4196-0.95698-1.4806c-0.52633-0.81435-1.0626-1.873-1.1918-2.3526-0.16628-0.61757-0.541-1.0878-1.2844-1.6118-1.2859-0.90639-2.2448-2.1266-2.4218-3.0818-0.18299-0.98731-0.57984-4.2348-0.74766-6.1183-0.3992-4.4808-0.57141-5.7248-0.91379-6.6014-0.72834-1.8646-0.41041-10.634 0.49168-13.563 0.35398-1.1493 0.74406-1.6545 3.013-3.9022 1.4334-1.42 3.4058-3.1214 4.383-3.7808 1.4896-1.0052 1.9542-1.1989 2.8757-1.1989 0.69467 0 1.5321-0.21945 2.2761-0.59646 3.6087-1.8287 6.4797-2.4802 8.5922-1.9499 0.7574 0.19014 1.9712 0.41501 2.6974 0.49974 2.5064 0.29242 5.3677 0.87887 6.0765 1.2454 0.93619 0.48413 6.987 6.4021 7.6721 7.5037 0.58288 0.93721 0.57746 0.84852 0.71371 11.679l0.0606 4.8192 0.70378 1.0179 0.70377 1.0179-0.29298 3.7364c-0.45635 5.8202-0.63714 6.4215-2.8008 9.3146-0.69115 0.92418-1.3261 2.0044-1.411 2.4005s0.0138 1.6924 0.21924 2.8806c0.30623 1.7708 0.5778 2.5037 1.5057 4.0634 1.2739 2.1413 3.2786 4.4128 5.1537 5.8397 1.5188 1.1557 9.394 4.6454 12.365 5.479l4.258 1.1895c13.05 3.6298 13.377 3.7436 14.78 5.147 1.0272 1.0272 1.1685 1.3137 1.6418 3.3298 1.285 5.4732 2.0962 13.987 3.3776 35.444 0.95492 15.991 1.0084 17.888 0.90604 32.167-0.10648 14.861-0.15353 15.653-1.3976 23.525-1.6557 10.477-3.3477 15.708-6.6594 20.587-0.64885 0.95589-1.8018 2.7069-2.5622 3.8912l-1.3826 2.1532 0.63097 6.2485c0.34701 3.4367 0.63013 7.4638 0.62915 8.9491l-2e-3 2.7006h-0.70834c-0.38958 0-1.2328 0.11245-1.8737 0.24993l-1.1654 0.24992 0.044 4.6111c0.081 8.4853-0.28418 16.206-0.9789 20.694-0.34737 2.2445-0.73491 5.5932-0.8612 7.4415-0.30124 4.4093-0.55956 7.3781-1.4098 16.203-0.98105 10.183-1.1755 15.675-1.3728 38.768-0.22555 26.398-0.22505 27.492 0.0196 43.105 0.16097 10.274 0.14261 13.463-0.08 13.879-0.35168 0.65709-1.6978 1.2549-4.6351 2.0583-3.6345 0.99411-3.6633 1.4158-0.40794 5.9688 2.7152 3.7974 4.019 6.2826 4.2298 8.062 0.17905 1.5118-0.10245 1.9752-2.1272 3.5026-2.082 1.5705-3.2254 2.0093-6.29 2.4135-2.9483 0.38886-10.724 0.442-11.669 0.0797zm-5.1939-282.87c0.34475-1.5843 0.78759-3.8528 0.9841-5.041 0.90734-5.487 3.0489-20.805 2.9259-20.928-0.0306-0.0306-1.0775 1.4653-2.3265 3.3243s-2.5229 3.5783-2.831 3.8207c-0.54926 0.4322-0.5797 0.42855-1.5603-0.18666-0.55006-0.3451-1.8751-1.4195-2.9445-2.3876l-1.9444-1.7602-1.8716 2.0559-1.8715 2.0559 1.472 2.1241c0.80962 1.1683 1.6785 2.6452 1.9309 3.282s1.1271 2.5621 1.9438 4.2785c2.178 4.577 4.2095 9.3891 4.6926 11.115 0.23292 0.83221-5.9263 37.141-5.83 37.035s6.8857-37.203 7.2305-38.788zm-19.771-2.4186c0-1.4212 1.0038-6.4029 2.0734-10.29 0.47445-1.7242 1-3.8352 1.1679-4.6913 0.30388-1.5492 0.30201-1.5612-0.40124-2.5833-0.38859-0.5648-0.81907-1.3497-0.95659-1.7442s-0.32842-0.71734-0.42417-0.71734-1.3965 1.3553-2.8906 3.0118c-1.6633 1.8441-2.8634 2.9835-3.0954 2.9388-0.20837-0.04013-0.66585-0.64734-1.0166-1.3494-0.76885-1.5387-1.178-2.0157-1.178-1.3733 0 1.1292 16.954 55.491 18.52 59.031 0.65555 1.4823-11.799-40.695-11.799-42.233zm1.6312-21.586c1.2192-1.4523 6.5694-2.8951 6.6513-3.2063 0.12936-0.49149-4.8717-1.3012-9.735-6.1678-3.0791-3.0811-5.6768-5.5535-5.7728-5.4942s-0.2479 0.54234-0.33761 1.0734c-0.11243 0.66546-0.52969 1.3925-1.3426 2.3392-1.3578 1.5813-1.3596 1.0288 0.0212 6.2947 0.50201 1.9144 1.0381 4.1288 1.1914 4.921s0.89147 2.7198 1.6404 4.2835l1.3617 2.8433 2.0526-2.1231c1.129-1.1677 3.0502-3.3114 4.2694-4.7636zm18.93 1.5603c3.1943-4.6014 3.338-4.9518 3.7873-9.2419 0.54282-5.1823 0.55516-5.0666-0.70519-6.603-0.59489-0.72522-1.1883-1.3186-1.3187-1.3186s-2.6953 2.3307-5.6998 5.1794-5.8919 5.5652-6.4165 6.0369c-0.92544 0.83208-2.711-0.13294-2.3679 0.50881 0.39394 0.73677 7.0413 6.6128 8.7228 7.9455 0.59412 0.47091 1.2305 0.82861 1.4142 0.79489s1.3464-1.5196 2.5837-3.302zm111.47 289.35c-2.6136-0.32697-7.6416-1.368-8.1241-1.682-0.30942-0.2014-0.78162-0.86137-1.0494-1.4666-0.44045-0.99565-0.45831-1.2278-0.18752-2.4378 0.28879-1.2905 0.46009-1.5013 4.8932-6.0208 4.5506-4.6394 6.8253-7.4736 7.9682-9.9283 0.49839-1.0704 0.57605-1.5953 0.57807-3.9077 2e-3 -1.8524-0.0896-2.7441-0.29771-2.9091-0.16503-0.13083-1.1102-0.25823-2.1004-0.28305s-1.8726-0.12007-1.9608-0.21157c-0.27143-0.28163-1.1522-9.2196-1.4988-15.21-0.1808-3.1249-0.38619-5.7746-0.4564-5.8882-0.11844-0.19163-0.56883-5.4455-1.4776-17.236-0.20477-2.6566-0.78851-7.3206-1.307-10.442-0.51529-3.1026-1.0575-6.7214-1.205-8.0416-0.52964-4.7422-0.81749-5.8887-3.7664-15.003-3.2439-10.026-8.2346-24.726-8.5016-25.041-0.0913-0.1076-0.23893 1.9448-0.32818 4.5609s-0.26571 5.7828-0.3921 7.037-0.33616 3.5227-0.46617 5.041-0.51656 5.6772-0.85899 9.2419-0.71266 9.2899-0.82275 12.723c-0.46757 14.579-0.73313 23.378-0.97899 32.437-0.14377 5.2976-0.35511 10.051-0.46961 10.562s-0.38905 1.0382-0.61006 1.1702c-1.268 0.75748-1.3511 0.94201-2.1661 4.8135-0.44325 2.1056-0.80897 4.1626-0.81267 4.5712-8e-3 0.92017-0.47623 1.3551-2.1672 2.0143-0.72615 0.28311-1.9144 0.80477-2.6405 1.1592-1.2747 0.62221-1.4612 0.64446-5.4011 0.64446-2.8184 0-4.3883-0.10202-5.0746-0.32976-0.92626-0.30736-1.0812-0.28937-2.2805 0.26464-0.70767 0.32691-2.2589 1.3234-3.4471 2.2145-3.7462 2.8092-4.1843 2.9501-11.983 3.854-5.5566 0.64395-6.8701 0.57544-9.9232-0.51753-1.3723-0.49126-2.1979-1.8658-2.2798-3.7958-0.057-1.3433-0.0303-1.409 0.90145-2.2244 0.92134-0.8062 8.0006-4.3922 12.905-6.5368 1.2883-0.56341 2.612-1.2364 2.9415-1.4956s1.3194-1.5163 2.1997-2.7936 1.986-2.8042 2.4572-3.3933 0.82721-1.2449 0.7912-1.4574 0.16095-1.351 0.43773-2.5298c2.3485-10.003 3.1206-13.546 3.4481-15.826 0.48778-3.3957 1.9904-15.575 2.1916-17.764 0.17211-1.8724-0.42885-11.646-0.94462-15.363-0.1832-1.3203-0.83453-5.9652-1.4474-10.322s-1.547-11.054-2.0758-14.883c-1.4249-10.316-3.6099-23.123-5.2421-30.726l-1.4428-6.7214-0.51128-7.9216c-0.52053-8.0651-0.73004-17.965-0.40472-19.125 0.16484-0.58763 0.0436-0.74011-1.4553-1.8303-2.5521-1.8562-5.3416-5.8779-6.4444-9.291l-0.62048-1.9204-0.23006-14.643c-0.33738-21.473 0.14199-32.472 1.9878-45.609 1.9054-13.562 2.2988-15.162 4.146-16.864 1.3229-1.2194 2.9261-2.2794 8.6444-5.7158 5.2765-3.1708 6.9734-4.5669 9.8425-8.0977 1.8793-2.3127 2.2952-3.2778 2.3076-5.3536 8e-3 -1.4057-0.39481-2.4132-1.6234-4.0566-1.056-1.4125-2.3087-3.8769-2.6071-5.1287-0.0829-0.34787-0.23342-0.74051-0.33443-0.87253-0.53147-0.69462-1.246-4.2208-1.897-9.3619-0.40122-3.1686-0.90076-6.8414-1.1101-8.1617-0.55127-3.4772-0.50891-6.5893 0.11659-8.5632 0.83943-2.6489 3.5174-5.7472 6.5431-7.57 2.1796-1.313 3.5797-1.5691 9.2375-1.6895l5.0787-0.10807 2.0027 0.87566c4.7556 2.0794 5.2689 2.3784 6.6914 3.899 3.1225 3.3377 3.7683 4.8959 4.0929 9.8746 0.16667 2.5566 0.31968 3.5353 0.59596 3.8116 0.30442 0.30443 0.35517 0.87662 0.28035 3.1615-0.11091 3.3872-0.63446 5.3822-2.3248 8.8589l-1.2119 2.4925v4.9855l2.5805 2.7173c1.4193 1.4945 3.2842 3.5751 4.1441 4.6235l1.5636 1.9062 6.421 1.9652c10.157 3.1086 11.444 3.5562 14.404 5.0067 2.4046 1.1783 2.9223 1.5387 3.7406 2.6042 0.52234 0.68015 1.123 1.6147 1.3348 2.0768 0.55475 1.2104 2.9454 13.603 3.4962 18.124 1.3945 11.446 2.4598 21.742 2.5461 24.605 0.0537 1.7824 0.21316 4.026 0.35441 4.9858 0.27025 1.8365 0.34735 5.7544 0.12737 6.4735-0.0712 0.23272-0.35254 2.1368-0.62523 4.2312s-0.6688 4.1426-0.88022 4.5515c-0.88909 1.7193-9.2085 14.043-10.886 16.125l-0.77339 0.9602 0.14303 2.4005c0.0787 1.3203 0.74931 6.5593 1.4903 11.642 1.1746 8.0575 1.3753 9.9802 1.5655 15.003 0.12 3.1686 0.46835 7.8032 0.7741 10.299l0.55596 4.5377-0.91634 0.35995c-1.0659 0.4187-1.2124 0.80914-1.6278 4.3389-0.49858 4.2369-0.16933 8.2195 0.95564 11.559 0.24614 0.73081 0.60732 2.2971 0.80258 3.4807 1.1304 6.8518 3.6485 21.509 4.3494 25.317 0.44961 2.4425 1.1977 6.7634 1.6624 9.602s1.1652 6.2413 1.5567 7.5616c1.7391 5.8653 1.7085 5.6168 1.7024 13.843-3e-3 4.1369-0.10648 12.437-0.22987 18.444s-0.23865 16.593-0.25618 23.525l-0.0319 12.603 0.74256 2.2805c0.57706 1.7722 0.80449 3.0563 1.0203 5.7612 0.1528 1.9144 0.20122 3.9849 0.1076 4.6011-0.21859 1.439-1.2283 2.8265-2.8401 3.9029-0.69708 0.46553-1.5057 1.021-1.7969 1.2344s-0.96846 0.41059-1.505 0.43817c-0.91349 0.047-1.0727 0.17308-2.5045 1.9837-1.846 2.3345-3.765 4.2308-5.063 5.0033-1.0638 0.63304-4.3203 1.7398-7.7822 2.6449-2.2542 0.58934-5.1466 0.88237-6.7408 0.68294zm-208.84-10.316c-0.33007-0.0589-2.1664-0.32228-4.0808-0.58525-3.1036-0.42633-3.699-0.58681-5.4962-1.4813-1.1085-0.55175-3.1069-1.8023-4.4409-2.7789-3.0572-2.2382-3.025-2.2224-6.6542-3.2604-3.6592-1.0465-5.3992-1.8144-6.3435-2.7994-0.67334-0.70231-0.71437-0.86334-0.79209-3.109-0.0877-2.5325 0.30041-4.471 1.1834-5.9113 0.25239-0.41169 0.45888-0.81548 0.45888-0.89736s-0.43934-0.21911-0.9763-0.30498c-1.4664-0.23451-1.6283-0.50463-1.3722-2.2902 0.27707-1.9316 0.055-4.4182-0.58421-6.5427-0.47983-1.5948-0.49346-1.9922-0.3381-9.842 0.11675-5.8996 0.0582-10.556-0.20995-16.702-0.3614-8.2817-0.55682-40.296-0.24906-40.794 0.0734-0.11875 0.0172-4.7885-0.12496-10.377-0.19843-7.8024-0.3952-11.392-0.84757-15.464-0.32402-2.9166-0.64514-5.874-0.71352-6.5721s-0.60615-3.2268-1.195-5.6194-1.0706-4.5328-1.0707-4.7561-0.0978-0.46632-0.21732-0.54016c-0.12211-0.0755-0.16647 0.2599-0.10132 0.766 0.0637 0.49512-0.11289 2.1425-0.39246 3.6608-1.0396 5.6458-1.2153 6.6372-1.4464 8.1617-0.13008 0.85817-0.33647 2.1544-0.45868 2.8806-0.30146 1.7912-2.5478 10.485-4.7451 18.364-0.99411 3.5647-1.9644 7.0754-2.1561 7.8016s-1.5226 5.6412-2.9574 10.922c-3.5552 13.086-3.8602 14.243-4.0824 15.483-1.308 7.3038-1.9815 11.744-2.303 15.186-0.21261 2.2758-0.52595 5.488-0.69631 7.1384s-0.32251 5.9172-0.33809 9.482-0.099 9.506-0.18536 13.203c-0.14396 6.1613-0.19401 6.7475-0.6007 7.0351-0.39417 0.27867-0.44369 0.67559-0.44369 3.5565 0 1.9879-0.1072 3.4457-0.27706 3.7672-0.15241 0.28839-0.72269 0.95643-1.2673 1.4845s-1.777 1.8448-2.7387 2.9261l-1.7485 1.9659-1.2675-0.0455c-1.2344-0.0444-1.3068-9e-3 -2.7742 1.3486-2.3508 2.1754-4.6623 3.6954-6.0827 4.0001-1.3893 0.29795-4.462 0.16282-8.2092-0.36101-1.3203-0.18458-3.0165-0.38975-3.7694-0.45597-2.213-0.19466-2.9022-0.59932-3.538-2.0772-0.43151-1.0031-0.52271-1.5542-0.42068-2.5428 0.15469-1.4988 0.56075-2.2843 2.3246-4.4972 0.72745-0.91259 1.8087-2.2754 2.4028-3.0285s1.9813-2.4369 3.0827-3.7418c1.9447-2.3042 3.5518-4.9313 3.2828-5.3664-0.0728-0.11782-0.72958-0.34788-1.4595-0.51121s-1.3624-0.35974-1.4056-0.43639 0.0645-1.4897 0.2393-3.14c0.40909-3.8622 0.50471-22.717 0.1467-28.926-0.14465-2.5085-0.33278-8.4497-0.4181-13.203-0.16285-9.0758-0.19347-8.4843 1.0938-21.124 1.0328-10.141 1.3175-14.773 1.5493-25.205 0.13361-6.0148 0.49042-14.473 0.74146-17.578l0.12087-1.4945-0.7917-0.33081c-0.43543-0.18193-1.6916-1.02-2.7916-1.8623-2.3642-1.8105-3.2331-3.2454-3.6537-6.033-0.29062-1.9263-0.33494-7.7261-0.085-11.135l0.16023-2.1856-0.98283-0.15716c-0.54055-0.0864-1.3624-0.33816-1.8263-0.55939l-0.84349-0.40222-3.6e-4 -12.738c-1.9e-4 -7.006-0.0694-19.111-0.15382-26.901-0.14857-13.711 0.0876-26.683 0.63375-34.807 0.12427-1.8484 0.28635-4.711 0.36017-6.3613 0.28018-6.2631 0.64725-10.833 1.2242-15.243 0.32821-2.5085 0.8088-6.2893 1.068-8.4017 0.73184-5.9656 1.1612-8.7415 1.4297-9.2432 0.47537-0.88824 3.831-2.8639 13.442-7.9141 7.3418-3.8578 9.4474-5.0491 13.923-7.8773 6.3007-3.9816 6.884-4.3672 7.2622-4.8012 0.20071-0.23028 0.49604-1.4426 0.67286-2.7619 0.26069-1.9453 0.2604-2.5051-2e-3 -3.2407-0.44601-1.2515-1.17-2.2094-1.6698-2.2094-0.23722 0-0.94083-0.66338-1.5913-1.5003-0.94993-1.2222-1.2926-1.9452-1.8492-3.9008-0.89802-3.1555-1.1494-6.549-0.55247-7.46 0.48924-0.74669 0.51812-1.0159 0.82193-7.6631 0.29694-6.497 0.68625-7.8883 3.0031-10.732 1.2393-1.5213 3.7314-3.489 4.6732-3.6897 0.34845-0.07427 1.6598-0.51843 2.914-0.98703l2.2805-0.85199 3.9608 0.13851c7.1418 0.24975 9.4554 1.1411 13.463 5.1869 3.3193 3.3506 3.9212 4.5086 3.9323 7.564 4e-3 1.1943-0.13676 3.6343-0.31355 5.4222-0.31802 3.2163-0.31574 3.2604 0.21487 4.1597 0.51178 0.86744 0.52866 1.0643 0.36924 4.3108-0.26232 5.3423-1.1304 8.3229-2.4241 8.3229-0.64347 0-0.88727 0.58976-1.29 3.1206-0.46884 2.9459-0.585 5.6448-0.28241 6.5616 0.30877 0.93557 2.0398 2.6332 4.9341 4.8391 1.5386 1.1726 2.44 1.5646 10.682 4.6463 4.951 1.8511 11.106 4.3247 13.678 5.4969 3.9388 1.795 4.7464 2.2512 5.1208 2.8921 0.57533 0.98511 3.6734 11.769 3.8759 13.492 0.1531 1.3021 0.62579 4.7615 1.0988 8.0416 0.13325 0.92419 0.29401 2.1124 0.35722 2.6405s0.27824 2.0944 0.47786 3.4807 0.46908 3.2767 0.59888 4.2009c0.64201 4.5722 1.349 18.765 1.7996 36.127 0.20046 7.7236 0.47235 17.824 0.60421 22.445s0.30997 12.422 0.39578 17.335l0.15604 8.933-0.69891 0.26979c-0.38438 0.14839-1.3267 0.22599-2.0941 0.17244-1.094-0.0763-1.4367-0.0161-1.5876 0.27912-0.10583 0.20706-0.26335 1.5964-0.35006 3.0873-0.10634 1.8292-0.31545 3.1174-0.64295 3.9608-0.26693 0.68749-0.68824 2.3302-0.93626 3.6505-0.8269 4.4023-0.89994 4.5798-2.9055 7.0613-2.5302 3.1307-3.253 3.7782-6.5854 5.8993-1.5843 1.0085-2.9645 1.9159-3.067 2.0164s-0.0561 3.2298 0.1031 6.9539c0.35547 8.3142-0.0564 30.684-0.64962 35.282-0.19864 1.5397-0.52626 4.0957-0.72803 5.68-0.56254 4.4171-1.0099 7.4271-1.5342 10.322-0.26302 1.4523-0.64343 3.6668-0.84536 4.921s-0.52679 3.1446-0.72188 4.2009-0.4589 2.8926-0.58625 4.0808c-0.25289 2.3599-0.79331 6.8431-1.3455 11.162-0.41152 3.2186-0.78167 10.055-1.0191 18.819l-0.16837 6.2166-1.1402 0.33203c-1.2578 0.36629-1.2584 0.36706-0.86135 1.1135 1.2396 2.3306 5.9216 6.4543 12.192 10.738 3.3256 2.2719 5.4292 3.9432 6.0916 4.8394 0.29185 0.39488 0.52374 1.171 0.59055 1.9767 0.10298 1.2418 0.0619 1.3714-0.64444 2.0312-0.9185 0.85801-4.0894 2.1035-6.2425 2.452-1.7692 0.28638-5.8217 0.4694-6.7447 0.30462zm328.15-10.19c-2.0565-0.65387-2.5228-0.71616-4.7484-0.63438-1.5494 0.0569-2.5932-6e-3 -2.8043-0.17031-0.1848-0.14355-0.4039-0.85513-0.4867-1.5813-0.2972-2.6058-0.5931-4.1677-0.8357-4.4102-0.1422-0.14218-0.2467-1.4977-0.2467-3.1993v-2.9526h-0.8347c-1.3322 0-1.5951-0.64524-1.7345-4.2572-0.097-2.5139-0.2471-3.4739-0.8356-5.3448-0.8504-2.7041-0.8997-3.8238-0.2329-5.2913 0.2725-0.59972 0.5631-1.5179 0.6458-2.0404 0.1467-0.9264 0.1048-0.99772-1.6905-2.8704l-1.841-1.9204 0.1461-3.9608c0.0804-2.1784 0.2414-4.6196 0.3578-5.4248 0.1416-0.98002 0.1165-2.0238-0.0761-3.1572-0.2383-1.4034-0.4398-1.8617-1.1768-2.6775-0.4891-0.54139-0.897-1.011-0.9064-1.0437-0.0192-0.0666-0.1938-1.6349-0.9083-8.1601-0.2711-2.475-0.5527-4.8515-0.6258-5.2811s-0.2355-2.1169-0.3605-3.7496c-0.2173-2.8379-0.2687-3.0387-1.1676-4.5609-1.2905-2.1853-1.1418-1.4785-1.8253-8.6738-0.1958-2.0614-0.8339-6.076-1.4308-9.0018-1.197-5.8666-1.4952-7.7526-2.6571-16.803-0.6232-4.8539-1.043-7.1484-1.8887-10.322-1.2002-4.504-3.7597-15.204-3.7655-15.742-7e-3 -0.64494-0.4113-1.054-0.7582-0.7671-0.3953 0.32702-0.1407 10.281 0.4162 16.269 1.0187 10.953 1.2912 14.362 1.5256 19.084 0.4377 8.818 0.7566 13.525 0.9841 14.523 0.1203 0.52811 0.7519 2.9046 1.4036 5.2811 0.8785 3.2036 1.2825 5.2318 1.5624 7.8437 0.2076 1.9376 0.7698 6.0964 1.2492 9.2419 0.8361 5.4843 0.8666 5.9062 0.7432 10.28l-0.1287 4.5609 0.9692 3.0006 0.9691 3.0006-0.1002 3.7208c-0.0863 3.2077-0.1707 3.8566-0.612 4.7055-0.2815 0.54162-0.4689 1.1898-0.4165 1.4403s0.2697 1.1931 0.4829 2.0945c0.3397 1.4374 0.3563 2.338 0.135 7.3215-0.1387 3.1254-0.1823 5.9445-0.0969 6.2646 0.1254 0.46978-0.0109 0.7246-0.7059 1.3203l-0.8613 0.73813-0.3603 4.6064c-0.2782 3.5573-0.4729 4.8612-0.8552 5.7253l-0.495 1.119-3.1264-0.0842c-2.7685-0.0745-3.1411-0.0378-3.2549 0.32112-0.0707 0.2229-0.5052 0.73601-0.9656 1.1402l-0.8371 0.73495h-6.315c-3.4732 0-7.8025-0.0714-9.6206-0.15854l-3.3056-0.15852-0.45955-0.74166c-0.38305-0.6182-0.43334-1.0014-0.3021-2.302 0.24216-2.4 1.1431-3.9511 3.384-5.8258 2.0898-1.7484 5.3766-5.0664 5.7854-5.8404 0.16568-0.31374 0.21234-1.145 0.12367-2.2028-0.12475-1.488-0.20767-1.7153-0.66806-1.8308-1.5735-0.39491-1.9451-5.2279-0.93715-12.188l0.37112-2.5628-0.95228-1.6381c-0.52374-0.90095-1.4707-3.0964-2.1044-4.8788l-1.1522-3.2407 0.0558-3.9722 0.0558-3.9722-1.2417-4.3095c-1.1823-4.1034-1.2431-4.453-1.2703-7.3101-0.0215-2.2538 0.0753-3.3251 0.38885-4.3044 0.69718-2.1774 0.5729-3.1456-0.64189-5.0003l-1.0594-1.6174-0.62701-4.5609c-0.34485-2.5085-0.8412-6.0732-1.103-7.9216s-0.68865-5.3051-0.94858-7.6816-0.74796-5.7744-1.0846-7.551c-0.87332-4.6093-2.9754-13.183-3.4753-14.173-0.23308-0.46209-0.93545-3.2707-1.5608-6.2413-1.0805-5.1324-2.2582-10.339-2.7829-12.303-0.19562-0.73208-0.35117-0.90018-0.833-0.90018-0.32584 0-0.79672 0.24305-1.0464 0.54011l-1.0186 1.21c-0.45129 0.53538-0.79567 0.68294-1.7149 0.73476-0.87683 0.0494-1.3047 0.2192-1.8004 0.71425-2.1135 2.111-2.6636 2.4248-4.4256 2.5243-1.1115 0.0628-2.1963-0.0455-3.2136-0.32091-1.4046-0.38021-1.6824-0.57232-3.2518-2.249-2.7112-2.8966-2.5998-2.5628-2.6009-7.796-8.4e-4 -4.2257-0.0323-4.5486-0.48003-4.921-0.472-0.39263-0.47997-0.74306-0.53662-23.563-0.0653-26.304-0.0104-27.593 2.0033-47.05 0.26646-2.5745 0.6869-7.2735 0.93432-10.442s0.61124-7.3275 0.80846-9.2419 0.42016-4.2909 0.49539-5.2811c0.89027-11.717 1.1165-13.108 2.424-14.906 0.98495-1.3545 6.0991-5.9113 8.2111-7.3162 1.0881-0.72384 3.7373-2.3748 5.8871-3.6689 5.8495-3.521 7.3285-4.5456 9.2278-6.3928l1.7302-1.6827-0.20373-2.6177-0.20374-2.6177-1.2004-1.103c-1.467-1.348-2.1439-2.4682-2.3415-3.8747-0.17698-1.2601-0.40117-1.9093-1.476-4.2744-1.5662-3.4463-2.0162-5.6461-2.2333-10.919-0.28477-6.9157 0.17639-9.1228 2.5055-11.991 0.5581-0.68734 1.084-1.5198 1.1688-1.8498 0.28602-1.1144 1.0603-2.0735 3.282-4.0655 2.6241-2.3528 3.858-2.9525 7.1534-3.4764 2.2264-0.35395 2.7523-0.3559 5.869-0.02166 4.6304 0.49656 5.6131 0.81048 6.9619 2.2239 0.59772 0.62636 1.3705 1.3338 1.7173 1.572s1.6212 1.7506 2.8322 3.3607 2.2905 2.9882 2.399 3.0624c0.5142 0.35118 1.3956 1.8191 1.3956 2.3242 0 0.31097 0.1795 0.91111 0.3989 1.3336s0.6551 2.0546 0.9682 3.6268c0.5522 2.7723 0.5578 2.9153 0.1856 4.7404-0.4598 2.2542-1.8177 6.3725-2.3883 7.2434-0.2875 0.43886-0.4493 1.3537-0.5444 3.0791-0.1329 2.413-0.1502 2.4713-1.0161 3.429-1.3842 1.5308-1.6848 2.0907-1.6848 3.1381 0 0.83596 0.1472 1.1177 1.0202 1.9535 2.9937 2.8661 4.8924 3.789 14.323 6.9625 8.8565 2.9803 18.298 6.4736 19.287 7.1365 1.3905 0.93143 2.2385 2.5138 2.6761 4.9942 0.925 5.2423 1.5294 7.3862 4.8353 17.151 5.2752 15.582 6.7515 20.291 7.046 22.477 0.1463 1.086 0.4824 4.9451 0.7471 8.5758s0.5388 6.9803 0.6094 7.4434c0.2108 1.383-0.3469 12.543-0.8396 16.802-0.252 2.1784-0.6335 5.6352-0.8478 7.6816-0.9704 9.2689-3.2494 26.007-3.5871 26.345-0.0728 0.0728-0.3773 0.26005-0.6767 0.41622s-0.5223 0.39511-0.4955 0.531c0.0977 0.49332-0.4211 4.7748-0.6707 5.5358-0.1735 0.5289-0.5906 0.97715-1.292 1.3882-1.0754 0.63024-3.2472 2.7844-3.2472 3.2208 0 0.1373-0.3747 0.66441-0.8327 1.1713-0.5826 0.64484-1.4839 1.2006-3.0006 1.8502l-2.1679 0.92853 6e-4 4.2117c2e-3 13.189 1.4809 32.664 3.3654 44.309 1.1521 7.1188 1.2245 7.4271 2.1328 9.0809 0.8714 1.5869 2.3985 6.1652 3.6054 10.81 0.9516 3.6619 1.2723 9.3109 1.3231 23.309 0.0397 10.955 0.1124 13.405 0.4693 15.819 0.2323 1.571 0.6086 5.3944 0.8363 8.4964l0.4139 5.6401-1.0324 0.45667c-0.9652 0.42695-1.0324 0.51836-1.0324 1.4051 0 0.87608 0.1693 1.1178 2.2205 3.1694 1.8024 1.8029 2.4816 2.7 3.6074 4.7652 1.3583 2.4916 2.0385 4.7772 1.7202 5.78-0.2023 0.63749-1.6853 1.379-4.0468 2.0234-1.8993 0.51824-2.8168 0.60869-7.102 0.70015l-4.921 0.10502zm-463.53-0.45741c0-0.17157-0.23256-0.51364-0.51682-0.76017-0.37376-0.32416-0.41821-0.44824-0.1606-0.44824 0.40077 0 1.0858 1.1119 0.83783 1.3599-0.08822 0.0882-0.16041 0.02-0.16041-0.15152zm37.343-0.55862c0.0901-0.23674 0.22437-0.36997 0.29828-0.29608s1.5e-4 0.26761-0.1639 0.43046c-0.23707 0.2353-0.26465 0.20773-0.13438-0.13438zm-59.668-0.15553c0-0.1398 0.10802-0.25421 0.24005-0.25421s0.24005 0.0476 0.24005 0.10586-0.10802 0.17262-0.24005 0.25421-0.24005 0.034-0.24005-0.10586zm41.929 0.0658c-0.088-0.088-0.16004-2.0864-0.16004-4.4409 0-3.8657 0.0437-4.3245 0.45009-4.731 0.24757-0.24754 0.59864-0.50093 0.78016-0.56305 0.22721-0.0778 0.0122-0.43252-0.69014-1.1385-0.98118-0.98627-1.0202-1.0827-1.0202-2.5199 0-0.82193-0.0706-2.8076-0.15692-4.4127l-0.15689-2.9183h-1.7814l-1.83-4.8803c-1.7755-4.735-2.6649-8.0765-2.9035-10.909-1.2889-15.3-1.8618-42.266-1.1384-53.585 0.73566-11.51 0.73134-11.005 0.10773-12.603-3.8719-9.9208-5.2897-13.37-8.8796-21.604-4.1652-9.5538-5.0248-11.272-6.1843-12.361-1.1273-1.0591-1.1861-0.6292-0.84373 6.1689 0.41709 8.2814 0.19373 38.676-0.33926 46.16-0.32783 4.6039-0.32897 5.8867-0.01046 11.882 0.19638 3.6968 0.4076 7.1329 0.46941 7.6358s0.28137 2.9334 0.48793 5.4011c0.38232 4.5675 0.49707 5.1814 1.9152 10.248 2.0103 7.182 4.1922 16.236 4.3401 18.01 0.17214 2.0639-0.07891 4.5496-0.90394 8.9506l-0.50914 2.716-1.4546 1.419-1.4546 1.419-0.09909 3.1808c-0.06637 2.13-0.20704 3.3456-0.42584 3.6795-0.22769 0.3475-0.26463 0.71531-0.12183 1.2132 0.1127 0.39299 0.22588 1.8455 0.25153 3.2277 0.03792 2.0469 0.12737 2.6023 0.48196 2.9933 0.23945 0.26405 0.55953 0.72096 0.7113 1.0154 0.26376 0.51173 0.24134 0.52856-0.51014 0.38232-0.4323-0.0841-0.86537-0.27096-0.96237-0.41523-0.10771-0.16021-0.17778-0.0968-0.18005 0.16301-0.0032 0.37635-0.17658 0.40933-1.504 0.28628-0.82517-0.0765-3.0126-0.13053-4.861-0.12009l-3.8408 0.0214c-5.0107 0.0247-6.3411-0.0259-6.4772-0.24624-0.24379-0.39445-0.60233-0.0422-0.42876 0.42119 0.13362 0.35667 0.10109 0.36898-0.24069 0.0911-0.25988-0.2113-0.65539-0.26412-1.1552-0.15436-0.45969 0.10097-0.70447 0.0771-0.61947-0.0605 0.08135-0.13164-0.89171-0.3396-2.3104-0.49376-2.0311-0.22073-2.523-0.35522-2.8711-0.78506-0.23105-0.28529-0.42009-0.71561-0.42009-0.95625s-0.34608-0.99429-0.76905-1.6747c-0.68658-1.1045-0.77027-1.4344-0.78015-3.0766l-0.01112-1.8394 1.43-1.8004c0.78647-0.99021 2.0543-2.4646 2.8173-3.2765 1.6019-1.7044 1.7265-1.9742 2.2233-4.8146 0.4848-2.7716 0.46728-3.9266-0.118-7.7771-0.73765-4.8528-1.0446-5.7509-2.5366-7.4231-0.70264-0.78749-1.4045-1.669-1.5596-1.9589-0.42619-0.79631-0.71994-7.8942-0.64389-15.558 0.0647-6.5221-0.22317-10.902-1.1288-17.175-0.05812-0.40254-0.32815-3.0491-0.60006-5.8812s-0.54817-5.4734-0.61395-5.8694-0.21894-2.3405-0.34043-4.3209c-0.1434-2.3373-0.42784-4.443-0.81065-6.0012-0.78985-3.2151-2.8081-10.742-2.9358-10.948-0.05605-0.0907-1.5239-5.442-3.2619-11.892l-3.16-11.727-0.03828-4.5609-0.03829-4.5609-3.264-0.15351c-1.7952-0.0845-3.3672-0.21727-3.4932-0.29519s-1.2423-0.29668-2.4805-0.48617c-2.4242-0.37097-4.2368-1.0541-5.0354-1.8978-0.27493-0.29042-1.3512-1.7976-2.3918-3.3492-1.5558-2.32-2.0266-3.2547-2.6499-5.2609-0.67922-2.1862-0.7454-2.66-0.63707-4.5603l0.12091-2.1206h-2.0707l-0.13232-1.0202c-0.07276-0.56111-0.29929-2.9646-0.50341-5.3411s-0.41518-4.645-0.46908-5.041-0.273-2.3405-0.48696-4.3209-0.42182-3.8708-0.46192-4.2009c-0.31541-2.5958-0.40946-3.8129-0.6215-8.0416-0.13238-2.6405-0.30699-5.7919-0.38799-7.0029-0.20416-3.0517-0.24074-13.219-0.05125-14.241 0.0856-0.46209 0.33506-2.4065 0.55435-4.3209s0.44503-3.8048 0.50161-4.2009c0.54056-3.7836 1.0618-18.013 1.0668-29.125 0.0021-4.6384 0.35691-7.7544 1.9043-16.724 0.69444-4.0254 0.71549-4.0908 1.551-4.8176 1.196-1.0402 4.7203-2.942 8.7892-4.7428 9.8499-4.3594 20.961-9.9221 22.036-11.033 0.76487-0.78999 0.79293-0.88904 0.83717-2.9548 0.04254-1.9871-0.0089-2.2424-0.7315-3.631-0.93756-1.8017-2.2174-5.2405-2.2174-5.958 0-1.1535-0.48459-1.9712-1.2601-2.1263-0.41361-0.08273-1.085-0.51398-1.4921-0.95835-0.96958-1.0586-1.8181-4.4618-1.8126-7.27 0.0035-1.7696 0.0592-2.0065 0.56549-2.4047 0.52508-0.41305 0.57258-0.66363 0.73054-3.8548 0.35575-7.1874 0.82222-9.2842 2.6906-12.095 1.9241-2.8943 2.3545-3.2681 5.4891-4.7673 4.6349-2.2167 4.783-2.2559 7.8811-2.0859 6.4867 0.35599 11.37 2.0824 14.442 5.1054 1.402 1.3798 2.1058 2.694 3.2314 6.0345 0.73496 2.1812 0.74526 2.2774 0.70785 6.6218-0.03787 4.4008-0.03684 4.41 0.59775 5.3439 0.71571 1.0532 0.77714 1.8426 0.39923 5.1298-0.21288 1.8517-0.33098 2.1674-1.3785 3.6848-1.747 2.5306-2.0006 3.1206-2.2108 5.1429-0.10687 1.0283-0.38226 2.5065-0.61199 3.2849-0.63584 2.1545-0.41948 3.4363 0.90802 5.3792 2.0057 2.9354 2.8496 3.418 8.0906 4.6263 1.6503 0.38049 7.9696 2.0364 14.043 3.6798 10.346 2.7996 11.08 3.0336 11.642 3.7118 0.76302 0.92021 2.7422 5.449 4.21 9.6336 1.0737 3.061 1.1544 3.467 1.4537 7.3215 0.29756 3.8322 0.57578 5.7018 1.7682 11.882 0.53488 2.7725 2.0897 11.964 2.8831 17.044 0.27839 1.7824 0.77971 4.6641 1.114 6.4039 0.59969 3.1206 0.60663 3.2922 0.51407 12.723l-0.0938 9.5593-2.3239 13.65c-1.2781 7.5073-2.3239 13.686-2.3239 13.731s-0.60805 0.11352-1.3512 0.15311l-1.3512 0.072 2e-3 1.3203c1e-3 0.72615 0.0797 2.7786 0.17468 4.5609 0.16974 3.1857-0.15219 7.0156-0.84737 10.082-0.25363 1.1187 0.19984 4.0947 3.109 20.404 0.52985 2.9706 1.1312 6.3733 1.3363 7.5616s0.53464 3.0246 0.73231 4.0808c0.35663 1.9055 0.63791 4.3129 1.5566 13.323 0.26251 2.5745 0.59825 5.5992 0.74607 6.7214 0.40184 3.0505 0.59482 56.926 0.21556 60.175-0.19679 1.6856-0.57609 3.2442-1.2237 5.0283-0.68863 1.8971-0.93857 2.9585-0.93857 3.9859 0 0.77017-0.28648 2.5436-0.63663 3.941-0.60289 2.406-0.67802 2.558-1.4165 2.8666s-0.76951 0.37186-0.58643 1.1837c0.10642 0.47182 0.48138 1.4463 0.83324 2.1654 0.6037 1.2339 1.1978 1.8511 4.9973 5.1915 1.1806 1.0379 2.0902 3.4447 2.0902 5.5305 0 1.4375-0.0227 1.4884-1.1061 2.4831-0.73807 0.67761-1.409 1.0639-2.0164 1.1611-1.8662 0.29841-3.448 1.0907-4.1545 2.0811-0.37164 0.52091-0.86315 0.94709-1.0922 0.94709s-0.54615 0.12963-0.70459 0.28806c-0.22404 0.22404-0.28806 0.19737-0.28806-0.12003 0-0.47794-0.26662-0.52553-0.67213-0.12002-0.21729 0.21731-0.28807 0.21876-0.28807 6e-3s-0.17158-0.21688-0.63341-0.0413c-0.34836 0.13246-0.69043 0.1838-0.76014 0.1141s0.0173-0.12675 0.19331-0.12675 0.26305-0.057 0.19333-0.12674-0.41178-0.0184-0.76016 0.11409c-0.47068 0.17895-0.63435 0.16525-0.63709-0.0533-2e-3 -0.18884-0.0883-0.16525-0.24005 0.066s-0.30349 0.27058-0.41641 0.12003c-0.24557-0.32744-2.7813-0.37784-2.9782-0.0592-0.10993 0.17785-0.3821 0.16307-0.89304-0.0486-0.54133-0.22423-0.92517-0.23808-1.4572-0.0526-0.47299 0.16489-0.77286 0.16986-0.86893 0.0144s-0.24751-0.1537-0.43958 6e-3c-0.31734 0.26335-2.258 0.22597-2.7081-0.0522-0.15217-0.094-0.5345-0.073-0.84959 0.0468-0.34872 0.13258-0.73107 0.12927-0.97717-8e-3 -0.257-0.14384-0.56879-0.13817-0.85597 0.0155-0.24844 0.13297-0.5347 0.16456-0.63613 0.0702s-0.1306 0.12547-0.0649 0.48855c0.12764 0.70469 0.11561 0.74963-0.13392 0.50009zm9.6356-2.6069c-0.0739-0.0739-0.20814 0.0593-0.29828 0.29608-0.13027 0.34211-0.1027 0.36967 0.13438 0.13438 0.16405-0.16285 0.23781-0.35655 0.1639-0.43046z"/>
  <path transform="translate(16.228 15.154)" d="m406.82 357.08c-6.4147-1.1191-6.3677-2.8794 0.28527-10.678 8.1969-9.6082 9.5985-13.652 5.7932-16.714-2.4576-1.9773-3.134-5.7429-5.1626-28.742-2.4753-28.063-3.8963-35.159-11.236-56.109l-4.6031-13.138-1.0304 5.7143c-0.56671 3.1429-1.7568 21.464-2.6447 40.714s-2.1688 36.286-2.8465 37.857-1.6491 4.3404-2.1586 6.1533c-1.0598 3.7712-5.8279 5.9896-12.874 5.9896-2.6747 0-7.4014 1.3231-10.504 2.9402-3.9704 2.0695-7.6814 2.8098-12.531 2.5-10.025-0.64051-9.8309-3.857 0.53448-8.8409 4.5451-2.1854 9.4258-5.5376 10.846-7.4495 3.4687-4.6698 8.1323-29.465 8.1323-43.238 0-12.233-2.4721-31.747-7.8902-62.283-1.9461-10.968-3.5384-24.872-3.5384-30.896 0-8.1991-0.56262-11.421-2.2371-12.811-6.1127-5.0731-6.7191-9.0695-5.9351-39.117 0.41131-15.764 1.5182-32.654 2.4597-37.534 1.6192-8.3911 2.0885-9.1128 8.6727-13.338 7.083-4.5451 15.611-13.152 15.611-15.755 0-0.78968-1.203-3.8209-2.6734-6.736-2.391-4.7404-5.8981-20.426-5.8981-26.379 0-1.2504 1.6346-4.216 3.6325-6.5903 6.3543-7.5517 19.854-7.3223 26.302 0.4469 3.4028 4.1002 4.4942 14.631 2.1991 21.219-2.8768 8.257-2.6732 9.6032 2.2747 15.044 2.9166 3.2074 7.495 5.8337 14.065 8.0684 14.724 5.0081 15.372 5.533 17.217 13.947 2.69 12.273 5.8369 45.533 4.8261 51.009-0.51555 2.7927-3.5251 8.9026-6.6879 13.577l-5.7506 8.4997 1.7753 18.152c0.97641 9.9838 1.3499 22.552 0.82996 27.929-0.77779 8.0437 0.0715 15.347 4.7916 41.205 5.6977 31.214 5.7317 31.609 4.965 57.857-0.46792 16.019-0.17887 29.523 0.7339 34.286l1.5059 7.8572-7.4109 6.6999c-6.5506 5.9222-9.3215 7.2841-18.125 8.9088-1.1786 0.21751-3.75 0.11514-5.7143-0.22762z" fill="#f50" stroke="#000" stroke-width="1.4286"/>
 </g>
</svg>
